<?xml version="1.0" encoding="utf-8"?>
<!-- Generator: Adobe Illustrator 15.0.0, SVG Export Plug-In . SVG Version: 6.00 Build 0)  -->
<!DOCTYPE svg PUBLIC "-//W3C//DTD SVG 1.1//EN" "http://www.w3.org/Graphics/SVG/1.1/DTD/svg11.dtd">
<svg version="1.1" xmlns="http://www.w3.org/2000/svg" xmlns:xlink="http://www.w3.org/1999/xlink" x="0px" y="0px"
	 width="198.43px" height="198.43px" viewBox="0 0 198.43 198.43" enable-background="new 0 0 198.43 198.43" xml:space="preserve">
<g id="Title_and_Cost">
	
		<text transform="matrix(1 0 0 1 65.2559 187.4297)" fill="#010101" stroke="#010101" stroke-miterlimit="10" font-family="'MyriadPro-Regular'" font-size="30">$ 180</text>
	<g>
		<g>
			<path fill-rule="evenodd" clip-rule="evenodd" fill="#F7DD1C" d="M88.256,37.026c-0.485,0.438-1.476,0.371-2.215,0.554
				C86.324,36.94,87.314,37.007,88.256,37.026z"/>
			<path fill-rule="evenodd" clip-rule="evenodd" fill="#F7DD1C" d="M117.887,38.411c0.71,0.029,1.32,0.157,1.662,0.554
				c-0.847,0.2-1.01-0.283-1.662-0.277C117.887,38.595,117.887,38.503,117.887,38.411z"/>
			<path fill-rule="evenodd" clip-rule="evenodd" fill="#F7DD1C" d="M78.287,38.964c-0.114,0.348-0.357,0.566-0.831,0.554
				C77.57,39.17,77.813,38.952,78.287,38.964z"/>
			<path fill-rule="evenodd" clip-rule="evenodd" fill="#F7DD1C" d="M124.811,40.072c0.476-0.015,0.709,0.213,0.83,0.554
				c-0.381,0.012-0.607-0.13-0.83-0.277C124.811,40.257,124.811,40.165,124.811,40.072z"/>
			<path fill-rule="evenodd" clip-rule="evenodd" fill="#F7DD1C" d="M68.041,41.734c-0.026,0.435,0.037,0.96-0.554,0.831
				c0-0.185,0-0.369,0-0.554c0.169-0.016,0.328-0.042,0.277-0.277C67.856,41.734,67.949,41.734,68.041,41.734z"/>
			<path fill-rule="evenodd" clip-rule="evenodd" fill="#F7DD1C" d="M130.349,41.734c0.398,0.155,0.676,0.432,0.831,0.831
				C130.575,42.615,130.298,42.338,130.349,41.734z"/>
			<path fill-rule="evenodd" clip-rule="evenodd" fill="#F7DD1C" d="M143.918,48.934c0.276,0,0.554,0,0.83,0
				c0,0.277,0,0.554,0,0.831c-0.395-0.066-0.467-0.456-0.83-0.554C143.918,49.118,143.918,49.026,143.918,48.934z"/>
			<path fill-rule="evenodd" clip-rule="evenodd" fill="#F7DD1C" d="M49.764,52.534c0.036,0.497-0.275,0.648-0.831,0.554
				C49.005,52.698,49.541,52.772,49.764,52.534z"/>
			<path fill-rule="evenodd" clip-rule="evenodd" fill="#F7DD1C" d="M72.472,54.472c1.24,0.698,0.223,3.654,0.554,5.261
				c-1.993,0.277-4.118-1.065-7.2-0.554c0.323,11.85-0.696,29.621,0.554,42.369c-2.77,0-5.539,0-8.308,0
				c1.27-12.853,0.201-28.045,0.554-41.815c-1.524-1.231-4.018-0.165-5.815,0c-0.314-1.226-0.751-4.754,0.277-5.538
				C58.845,53.929,67.177,53.364,72.472,54.472z M63.61,56.134c-3.032,0-6.293,0-8.861,0c-0.437,0.025-0.217,0.706-0.831,0.554
				c1.061,1.8,5.347,0.376,7.753,0.831c0,6.277,0,12.554,0,18.831c0.591,3.655,0.133,8.36,0.277,12.461
				c1.073,3.42-0.792,9.406,0.831,11.631c1.381-13.166-0.798-30.855,0.277-42.923c2.603-0.167,5.883,0.345,8.031-0.277
				C69.877,55.307,66.304,56.134,63.61,56.134z"/>
			<path fill-rule="evenodd" clip-rule="evenodd" fill="#F7DD1C" d="M87.148,66.934c1.529,1.979,2.879,4.136,3.877,6.646
				c-2.271,0.24-5.115,0.491-7.2-0.277c-0.443-2.234-1.564-3.79-2.77-5.261c-0.881,1.719,0.138,3.918,0.277,5.538
				c-2.292,0.137-4.737,0.544-6.923,0c1.111-6.578-0.011-12.128,0.277-19.384c2.702-0.503,7.938-0.191,11.908-0.277
				c4.583,0.488,6.869,7.166,3.877,11.077C89.488,65.766,88.511,66.542,87.148,66.934z M77.733,56.411
				c0.5,4.946-1.034,11.926,0.831,15.508c0.761-1.363-0.207-4.453,0.554-5.815c1.711,0.127,1.942,0.211,3.877,0.277
				c1.45,1.688,1.91,4.367,4.154,5.261c-0.241-2.34-2.906-3.433-2.215-5.815c2.897-0.241,3.923-2.354,4.154-5.262
				c-0.236-2.256-2.209-2.775-3.046-4.431C83.347,56.301,79.972,55.788,77.733,56.411z"/>
			<path fill-rule="evenodd" clip-rule="evenodd" fill="#F7DD1C" d="M100.164,54.195c-0.264,4.814-0.783,14.105,0.276,19.384
				c-2.569,0.241-4.883,0.108-7.2,0c1.039-5.691,0.79-14.514,0.277-19.384C95.774,53.861,98,54.022,100.164,54.195z M97.395,71.641
				c0.974-4.26,0.842-11.812-0.554-15.507C97.178,60.056,96.129,67.728,97.395,71.641z"/>
			<path fill-rule="evenodd" clip-rule="evenodd" fill="#F7DD1C" d="M109.856,68.872c0.059,1.788-0.38,4.072,0.83,4.708
				c-2.015,0.307-5.228,0.532-7.199,0c0.797-5.299,0.981-13.839,0-19.107c0.321,0.045,0.492-0.061,0.554-0.277
				c2.491-0.562,6.567-0.007,9.969-0.277c2.825,0.59,4.376,2.455,5.539,4.708c0.374,3.328-0.359,5.549-1.108,7.754
				C116.184,67.815,113.417,68.741,109.856,68.872z M106.811,71.641c1.721-0.494,0.43-4,0.83-5.815c2.4,0,4.8,0,7.2,0
				c1.236-1.81,2.835-3.258,2.216-6.923c-0.864-0.798-1.732-1.591-2.216-2.769c-2.861,0-5.723,0-8.585,0
				C106.62,61.124,105.525,67.572,106.811,71.641z"/>
			<path fill-rule="evenodd" clip-rule="evenodd" fill="#F7DD1C" d="M126.748,54.195c0,4.984,0,9.969,0,14.954
				c1.603,0.691,4.251,0.249,5.262-0.554c0.093,2.165,0.045,2.751,0,4.984c-3.203,0.036-8.048,0.066-11.354,0
				c0-6.461,0-12.923,0-19.384C122.289,53.582,125.85,54.001,126.748,54.195z M123.702,71.641c1.966-0.341,5.316,0.701,6.369-0.554
				c-2.128-0.087-4.804,0.374-5.815-0.831c0-4.708,0-9.416,0-14.123c-0.276,0-0.554,0-0.83,0
				C123.373,60.778,123.32,67.108,123.702,71.641z"/>
			<path fill-rule="evenodd" clip-rule="evenodd" fill="#F7DD1C" d="M145.303,54.195c0.603,1.474,0.345,3.144,0.554,4.431
				c-1.754,0-3.508,0-5.262,0c-0.634,0.474-0.102,2.114-0.277,3.046c1.136,0.028,2.271,0.055,3.047-0.277
				c-0.295,1.963,0.682,3.479,0,4.985c-1.071,0.148-1.353-0.494-2.492-0.277c-0.725,0.291-0.906,1.125-0.831,2.215
				c1.187,1.368,4.594,0.333,5.538,0.277c0.447,1.106,0.447,3.878,0,4.984c-3.877,0-7.754,0-11.631,0
				c0.846-5.96,0.325-13.557,0-19.384C136.244,53.839,142.146,53.676,145.303,54.195z M136.995,71.641
				c2.146-0.345,5.69,0.706,6.923-0.554c-1.889-0.234-4.792,0.545-5.815-0.554c0.095-2.218-0.492-3.754-0.277-6.092
				c1.162-0.684,4.132,0.439,4.431-1.108c-1.384,0-2.769,0-4.153,0c-0.648-1.202-0.861-4.301-0.277-5.815
				c1.497-0.753,5.855,1.246,6.093-1.384c-2.308,0-4.615,0-6.923,0C135.771,61.81,136.938,64.965,136.995,71.641z"/>
			<path fill-rule="evenodd" clip-rule="evenodd" fill="#EC3F35" d="M71.087,57.241c-2.147,0.622-5.428,0.11-8.031,0.277
				c-1.075,12.068,1.104,29.758-0.277,42.923c-1.622-2.225,0.242-8.211-0.831-11.631c-0.145-4.102,0.314-8.806-0.277-12.461
				c0-6.277,0-12.554,0-18.831c-2.406-0.455-6.692,0.97-7.753-0.831c0.614,0.152,0.394-0.529,0.831-0.554c2.568,0,5.829,0,8.861,0
				C66.304,56.134,69.877,55.307,71.087,57.241z"/>
			<path fill-rule="evenodd" clip-rule="evenodd" fill="#EC3F35" d="M86.041,56.134c0.837,1.655,2.81,2.174,3.046,4.431
				c-0.23,2.908-1.256,5.021-4.154,5.262c-0.69,2.382,1.975,3.475,2.215,5.815c-2.244-0.895-2.704-3.573-4.154-5.261
				c-1.935-0.066-2.166-0.15-3.877-0.277c-0.761,1.362,0.207,4.453-0.554,5.815c-1.864-3.582-0.331-10.562-0.831-15.508
				C79.972,55.788,83.347,56.301,86.041,56.134z M78.841,65.272c5.031,0.508,8.656-0.39,9.692-3.877
				c-0.287-4.236-4.927-4.119-9.692-3.877C78.841,60.103,78.841,62.688,78.841,65.272z"/>
			<path fill-rule="evenodd" clip-rule="evenodd" fill="#EC3F35" d="M96.841,56.134c1.396,3.695,1.528,11.247,0.554,15.507
				C96.129,67.728,97.178,60.056,96.841,56.134z"/>
			<path fill-rule="evenodd" clip-rule="evenodd" fill="#EC3F35" d="M106.256,56.134c2.862,0,5.724,0,8.585,0
				c0.483,1.178,1.352,1.971,2.216,2.769c0.619,3.666-0.979,5.113-2.216,6.923c-2.4,0-4.8,0-7.2,0
				c-0.4,1.814,0.891,5.321-0.83,5.815C105.525,67.572,106.62,61.124,106.256,56.134z M116.502,61.118
				c-0.537-4.34-4.142-4.432-8.861-4.154c-0.015,3.326-0.196,5.15,0,8.308C112.122,65.415,116.024,64.979,116.502,61.118z"/>
			<path fill-rule="evenodd" clip-rule="evenodd" fill="#EC3F35" d="M123.426,56.134c0.276,0,0.554,0,0.83,0
				c0,4.708,0,9.415,0,14.123c1.012,1.204,3.688,0.744,5.815,0.831c-1.053,1.255-4.403,0.212-6.369,0.554
				C123.32,67.108,123.373,60.778,123.426,56.134z"/>
			<path fill-rule="evenodd" clip-rule="evenodd" fill="#EC3F35" d="M136.995,56.134c2.308,0,4.615,0,6.923,0
				c-0.237,2.63-4.596,0.631-6.093,1.384c-0.584,1.514-0.371,4.613,0.277,5.815c1.385,0,2.77,0,4.153,0
				c-0.299,1.547-3.269,0.424-4.431,1.108c-0.215,2.338,0.372,3.874,0.277,6.092c1.023,1.099,3.927,0.319,5.815,0.554
				c-1.232,1.26-4.776,0.208-6.923,0.554C136.938,64.965,135.771,61.81,136.995,56.134z"/>
			<path fill-rule="evenodd" clip-rule="evenodd" fill="#F7DD1C" d="M107.641,65.272c-0.196-3.158-0.015-4.981,0-8.308
				c4.72-0.278,8.324-0.186,8.861,4.154C116.024,64.979,112.122,65.415,107.641,65.272z M109.856,63.333
				c1.742,0.266,2.55-0.404,3.6-0.831c0-0.923,0-1.846,0-2.77c-0.977-0.407-2.048-0.721-3.6-0.554
				C109.856,60.564,109.856,61.949,109.856,63.333z"/>
			<path fill-rule="evenodd" clip-rule="evenodd" fill="#F7DD1C" d="M78.841,57.518c4.766-0.242,9.405-0.359,9.692,3.877
				c-1.036,3.487-4.662,4.385-9.692,3.877C78.841,62.688,78.841,60.103,78.841,57.518z M81.333,62.78
				c1.398-0.079,2.401-0.553,3.6-0.831c0-0.646,0-1.292,0-1.938C82.495,58.408,79.296,59.842,81.333,62.78z"/>
			<path fill-rule="evenodd" clip-rule="evenodd" fill="#EC3F35" d="M84.933,60.011c0,0.646,0,1.292,0,1.938
				c-1.199,0.278-2.202,0.751-3.6,0.831C79.296,59.842,82.495,58.408,84.933,60.011z"/>
			<path fill-rule="evenodd" clip-rule="evenodd" fill="#EC3F35" d="M109.856,59.18c1.552-0.167,2.623,0.146,3.6,0.554
				c0,0.923,0,1.846,0,2.77c-1.05,0.427-1.857,1.096-3.6,0.831C109.856,61.949,109.856,60.564,109.856,59.18z"/>
			<path fill-rule="evenodd" clip-rule="evenodd" fill="#F7DD1C" d="M38.41,68.595c0.191,0.745-0.573,0.535-0.831,0.831
				c-0.083-0.544,0.374-0.549,0.554-0.831C38.226,68.595,38.318,68.595,38.41,68.595z"/>
			<path fill-rule="evenodd" clip-rule="evenodd" fill="#F7DD1C" d="M161.364,71.641c0.458,0.28,0.301,1.176,0.554,1.662
				C161.21,73.272,161.368,72.375,161.364,71.641z"/>
			<path fill-rule="evenodd" clip-rule="evenodd" fill="#F7DD1C" d="M37.025,72.195c0.088,0.642-0.044,1.063-0.277,1.384
				c-0.092,0-0.185,0-0.277,0c-0.113-0.667,0.506-0.602,0.277-1.384C36.841,72.195,36.933,72.195,37.025,72.195z"/>
			<path fill-rule="evenodd" clip-rule="evenodd" fill="#F7DD1C" d="M90.749,78.564c-1.532,4.375-5.598,6.218-5.815,11.908
				c2.654,3.254,4.572,7.244,7.2,10.523c-1.413,1.264-5.148,0.205-7.477,0.554c-1.002-2.321-1.797-4.849-4.154-5.815
				c-0.951,1.911-2.571,3.152-2.769,5.815c-2.585,0-5.169,0-7.754,0c2.304-3.972,5.033-7.52,7.2-11.63
				c-1.472-4.528-5.052-6.948-6.646-11.354c2.886,0.422,5.508-0.399,8.308,0.277c-0.824,2.182,1.289,3.398,2.215,4.708
				c0.959-1.622,2.511-3.189,2.492-4.984C86.364,78.597,88.529,78.379,90.749,78.564z M80.226,90.472
				c-2.362,2.992-4.364,6.344-6.092,9.969c3.861-1.309,3.68-6.659,6.923-8.584c0.86,1.448,2.303,2.312,2.492,4.431
				c1.92,0.48,2.026,2.774,3.046,4.154c0.461,0,0.923,0,1.385,0c-0.747-2.3-2.681-3.411-3.046-6.092
				c-1.993-0.407-2.13-2.67-3.046-4.154c1.084-3.715,3.872-5.729,4.984-9.416c-2.191-0.161-1.417,2.645-3.323,2.769
				c-0.468,2.301-1.404,4.135-3.323,4.985c0-0.461,0-0.923,0-1.385c-2.773-1.196-2.364-5.575-5.539-6.369
				C75.461,83.989,78.725,87.07,80.226,90.472z"/>
			<path fill-rule="evenodd" clip-rule="evenodd" fill="#F7DD1C" d="M130.625,78.564c0.604,1.981,1.233,3.936,2.77,4.984
				c1.709-1.211,2.624-3.201,2.77-5.261c2.308,0.387,4.853-0.443,7.2,0.277c-1.067,1.794-1.697,4.026-3.601,4.984
				c0.045,3.037-3.107,3.91-2.215,6.923c2.084,3.547,4.538,6.724,6.369,10.523c-1.756,1.254-5.583,0.091-7.478,0.554
				c-0.315-2.546-1.646-4.077-2.769-5.815c-0.277,0-0.554,0-0.831,0c-0.951,1.708-2.13,3.776-2.216,5.539
				c-1.966,0.618-5.056,0.112-7.477,0.276c2.061-3.847,4.322-7.493,6.646-11.077c-1.558-4.535-4.473-7.713-6.646-11.631
				C125.273,78.214,128.224,78.155,130.625,78.564z M133.948,88.534c-2.284-2.423-3.101-6.314-6.092-8.031
				c0.779,4.113,4.29,5.495,4.984,9.692c-0.815,1.954-2.278,3.26-2.77,5.538c-1.881,0.519-1.974,2.826-2.769,4.431
				c1.28-0.012,1.798-0.786,1.661-2.215c3.12-0.849,2.276-5.663,5.538-6.37c0.192,1.47,1.749,1.574,1.662,3.323
				c2.493,1.015,2.025,4.99,4.984,5.539c-1.482-4.518-5.364-6.635-6.092-11.908c1.651-2.172,5.022-5.447,4.153-8.308
				C137.507,83.046,135.627,85.689,133.948,88.534z"/>
			<path fill-rule="evenodd" clip-rule="evenodd" fill="#F7DD1C" d="M104.041,78.841c0.059,2.433,1.368,3.616,2.77,4.708
				c1.244-1.155,2.323-2.476,2.492-4.708c2.933,0.086,5.452-0.155,7.754,0c-2.335,3.296-4.72,6.542-6.37,10.523
				c1.517,4.668,4.61,7.759,6.924,11.631c-1.621,1.148-5.251,0.288-7.754,0.554c0.199-2.969-1.68-3.859-2.492-5.815
				c-0.185,0-0.369,0-0.554,0c-1.239,1.623-2.88,2.844-2.77,5.815c-2.494-0.183-5.721,0.367-7.754-0.276
				c2.247-3.938,4.837-7.533,6.923-11.631c-2.082-3.548-4.17-7.091-6.646-10.246C97.514,77.682,101.072,79.356,104.041,78.841z
				 M105.702,89.641c-1.118,3.589-2.956,6.459-5.262,8.862c0,0.646,0,1.292,0,1.938c3.293-1.785,3.696-6.458,6.37-8.862
				c2.908,2.261,3.698,6.641,6.646,8.862c-0.474-3.969-4.247-7.006-5.815-10.8c1.798-2.91,3.887-5.528,5.262-8.861
				c-3.045,1.385-4.046,4.815-5.538,7.754c-0.369,0-0.739,0-1.108,0c-1.464-3.059-2.451-6.594-5.815-7.754
				C101.943,83.985,104.38,86.256,105.702,89.641z"/>
			<path fill-rule="evenodd" clip-rule="evenodd" fill="#EC3F35" d="M139.21,80.226c0.869,2.861-2.502,6.136-4.153,8.308
				c0.728,5.272,4.609,7.39,6.092,11.908c-2.959-0.548-2.491-4.524-4.984-5.539c0.087-1.749-1.47-1.854-1.662-3.323
				c-3.262,0.707-2.418,5.521-5.538,6.37c0.137,1.429-0.381,2.203-1.661,2.215c0.795-1.604,0.888-3.912,2.769-4.431
				c0.491-2.278,1.954-3.584,2.77-5.538c-0.694-4.198-4.205-5.579-4.984-9.692c2.991,1.716,3.808,5.608,6.092,8.031
				C135.627,85.689,137.507,83.046,139.21,80.226z"/>
			<path fill-rule="evenodd" clip-rule="evenodd" fill="#EC3F35" d="M74.687,80.78c3.175,0.794,2.766,5.173,5.539,6.369
				c0,0.461,0,0.923,0,1.385c1.919-0.85,2.854-2.684,3.323-4.985c1.907-0.124,1.132-2.93,3.323-2.769
				c-1.113,3.687-3.9,5.7-4.984,9.416c0.916,1.483,1.053,3.747,3.046,4.154c0.365,2.681,2.3,3.792,3.046,6.092
				c-0.462,0-0.923,0-1.385,0c-1.02-1.38-1.126-3.674-3.046-4.154c-0.189-2.119-1.632-2.983-2.492-4.431
				c-3.243,1.926-3.062,7.276-6.923,8.584c1.729-3.625,3.73-6.977,6.092-9.969C78.725,87.07,75.461,83.989,74.687,80.78z"/>
			<path fill-rule="evenodd" clip-rule="evenodd" fill="#EC3F35" d="M100.44,80.78c3.364,1.16,4.352,4.695,5.815,7.754
				c0.369,0,0.739,0,1.108,0c1.492-2.938,2.493-6.369,5.538-7.754c-1.375,3.333-3.464,5.952-5.262,8.861
				c1.568,3.794,5.342,6.831,5.815,10.8c-2.947-2.221-3.737-6.601-6.646-8.862c-2.674,2.403-3.077,7.077-6.37,8.862
				c0-0.646,0-1.292,0-1.938c2.306-2.403,4.144-5.272,5.262-8.862C104.38,86.256,101.943,83.985,100.44,80.78z"/>
			<path fill-rule="evenodd" clip-rule="evenodd" fill="#F7DD1C" d="M162.472,81.057c0.213,1.044-0.338,1.324-0.277,2.215
				c-0.092,0-0.185,0-0.276,0c-0.196-1.027,0.473-1.188,0.276-2.215C162.287,81.057,162.379,81.057,162.472,81.057z"/>
			<path fill-rule="evenodd" clip-rule="evenodd" fill="#F7DD1C" d="M36.472,84.934c0.372,0.182,0.516,0.592,0.554,1.108
				C36.538,85.975,36.394,85.565,36.472,84.934z"/>
			<path fill-rule="evenodd" clip-rule="evenodd" fill="#F7DD1C" d="M161.918,84.934c0.021,0.482-0.063,0.861-0.277,1.108
				c-0.092,0-0.185,0-0.276,0c-0.021-0.482,0.062-0.861,0.276-1.108C161.733,84.934,161.825,84.934,161.918,84.934z"/>
			<path fill-rule="evenodd" clip-rule="evenodd" fill="#F7DD1C" d="M160.811,89.087c-0.032,0.338-0.083,0.656-0.555,0.554
				c0-0.185,0-0.369,0-0.554C160.44,89.087,160.625,89.087,160.811,89.087z"/>
			<path fill-rule="evenodd" clip-rule="evenodd" fill="#F7DD1C" d="M112.349,105.149c0.279,0.833-0.617,0.49-1.107,0.554
				c-0.248,0.894,0.902,0.389,1.107,0.83c-0.077,0.569-0.74,0.553-1.107,0.831c0.159,0.671,1.045,0.616,1.661,0.831
				c-0.196,1.004-2.019,0.382-3.046,0.554c0-1.292,0-2.585,0-3.877C110.973,105.176,111.992,103.97,112.349,105.149z"/>
			<path fill-rule="evenodd" clip-rule="evenodd" fill="#F7DD1C" d="M116.226,104.872c-0.05,0.873-0.911,0.936-1.938,0.831
				c0,0.646,0,1.292,0,1.938c0.447-0.078,0.477,0.262,0.831,0.276c1.244,0.229,0.306-1.725,1.384-1.661
				c0.089,1.104,0.016,2.046-0.554,2.492c-0.83,0-1.661,0-2.492,0c-0.394-0.927-0.394-2.674,0-3.6
				C114.478,105.175,115.229,104.015,116.226,104.872z"/>
			<path fill-rule="evenodd" clip-rule="evenodd" fill="#F7DD1C" d="M122.041,105.149c0.341,1.264-1.872-0.026-1.938,0.83
				c0.119,0.619,1.364,0.112,1.938,0.277c-0.042,1.378,0.415,1.649-0.277,2.492c-0.842-0.174-2.385,0.354-2.769-0.277
				c-0.021-0.943,1.025-0.819,1.938-0.83c-0.643-0.835-2.38-0.574-1.938-2.492C119.938,104.775,121.246,104.226,122.041,105.149z"/>
			<path fill-rule="evenodd" clip-rule="evenodd" fill="#F7DD1C" d="M125.641,104.872c-1.108,0.901-0.543,3.414-1.385,3.877
				c-1.13-0.531-0.192-3.131-1.107-3.877C123.499,104.555,125.332,104.315,125.641,104.872z"/>
			<path fill-rule="evenodd" clip-rule="evenodd" fill="#F7DD1C" d="M128.964,105.149c0.263,1-1.091,0.386-1.661,0.554
				c-0.428,1.165,1.433,0.044,1.384,0.83c0.431,0.984-0.94,0.168-0.83,0.831c-0.089,0.734,1.551-0.259,1.107,0.831
				c0.169,1.092-1.521,0.325-2.216,0.554c0-1.292,0-2.585,0-3.877C127.229,104.834,129.017,103.972,128.964,105.149z"/>
			<path fill-rule="evenodd" clip-rule="evenodd" fill="#F7DD1C" d="M133.395,105.703c-0.992,0.638-1.005,2.06-0.276,3.046
				c-1.388,0.279-0.975-1.241-1.938-1.385c-0.575,0.071-0.076,1.217-0.555,1.385c-1.31-0.528-0.266-1.888-0.554-3.6
				C131.032,104.22,132.917,104.627,133.395,105.703z M131.18,106.257c0.276,0,0.554,0,0.83,0c0-0.185,0-0.369,0-0.554
				c-0.276,0-0.554,0-0.83,0C131.18,105.888,131.18,106.072,131.18,106.257z"/>
			<path fill-rule="evenodd" clip-rule="evenodd" fill="#F7DD1C" d="M136.718,104.872c-0.463,0.367-0.591,1.071-1.661,0.831
				c-0.444,1.09,1.195,0.096,1.107,0.83c0.443,1.09-1.196,0.097-1.107,0.831c0.119,0.619,1.364,0.112,1.938,0.277
				c0,0.369,0,0.738,0,1.107c-1.016,0-2.031,0-3.047,0C133.522,106.245,134.104,103.431,136.718,104.872z"/>
			<path fill-rule="evenodd" clip-rule="evenodd" fill="#F7DD1C" d="M139.21,107.642c1.322,0.214-0.068-2.284,0.831-2.492
				c0.185,0,0.369,0,0.554,0c1.166,0.033,0.275,2.125,0.554,3.046c-0.84,0.544-2.104,0.666-3.6,0.554
				c0.12-1.265-0.28-3.049,0.276-3.877c0.357-0.382,1.203-0.274,1.938-0.277C139.12,104.895,137.721,107.013,139.21,107.642z"/>
			<path fill-rule="evenodd" clip-rule="evenodd" fill="#F7DD1C" d="M94.349,104.872c1.264-0.156,1.725,0.491,3.046,0.277
				c0.056,2.166-0.674,1.889,0,3.6c-1.229,0.121-0.685-1.53-2.215-1.107c-0.734-0.089,0.259,1.551-0.831,1.107
				C93.942,107.999,94.599,106.345,94.349,104.872z M96.564,105.703c-0.461,0-0.923,0-1.385,0
				C94.756,106.554,96.988,106.554,96.564,105.703z"/>
			<path fill-rule="evenodd" clip-rule="evenodd" fill="#F7DD1C" d="M108.748,105.149c0,1.199,0,2.399,0,3.6
				c-1.058,0.135-0.866-0.979-1.384-1.385c-0.415,0.601-0.364,1.667-1.662,1.385c0.178-1.114-0.359-2.944,0.277-3.6
				C106.602,104.608,108.063,104.907,108.748,105.149z M107.087,106.257c0.369,0,0.738,0,1.107,0c0-0.185,0-0.369,0-0.554
				c-0.369,0-0.738,0-1.107,0C107.087,105.888,107.087,106.072,107.087,106.257z"/>
			<path fill-rule="evenodd" clip-rule="evenodd" fill="#F7DD1C" d="M61.118,105.149c2.308,0,4.616,0,6.923,0
				c-0.19,2.03-0.285,2.381-0.277,3.6c-1.422,0.591-0.251-1.41-1.385-1.107c-0.937,0.078-0.294,1.736-1.938,1.107
				c0-1.016,0-2.031,0-3.046c-0.277,0-0.554,0-0.831,0c-0.927,0.365,0.529,3.113-0.831,3.046
				C61.711,108.063,62.62,105.4,61.118,105.149z M65.826,106.257c0.369,0,0.738,0,1.107,0c0-0.185,0-0.369,0-0.554
				c-0.369,0-0.738,0-1.107,0C65.826,105.888,65.826,106.072,65.826,106.257z"/>
			<path fill-rule="evenodd" clip-rule="evenodd" fill="#F7DD1C" d="M70.533,105.149c0.369,0,0.738,0,1.107,0
				c-0.365,2.026,1.345,1.979,1.385,3.6c-1.592-0.064-2.324-1.04-3.6,0C69.251,107.005,70.381,106.565,70.533,105.149z
				 M70.533,107.642c0.185,0,0.369,0,0.554,0c0-0.185,0-0.369,0-0.554c-0.185,0-0.369,0-0.554,0
				C70.533,107.272,70.533,107.457,70.533,107.642z"/>
			<path fill-rule="evenodd" clip-rule="evenodd" fill="#F7DD1C" d="M73.579,105.149c1.098,0.102,2.654-0.254,3.323,0.276
				c0.491,0.524,0.202,1.829,0.277,2.77c-0.686,0.698-2.185,0.584-3.6,0.554C73.579,107.549,73.579,106.349,73.579,105.149z
				 M75.795,108.195c0-0.831,0-1.662,0-2.492c-0.37,0-0.739,0-1.108,0C74.67,106.92,74.42,108.37,75.795,108.195z"/>
			<path fill-rule="evenodd" clip-rule="evenodd" fill="#F7DD1C" d="M77.733,105.149c0.831,0,1.661,0,2.492,0
				c0.427,1.165-1.433,0.044-1.385,0.83c-0.047,0.601,0.982,0.126,1.385,0.277c0.282,1.297-0.784,1.246-1.385,1.661
				c0.119,0.619,1.365,0.112,1.938,0.277c-0.196,1.004-2.018,0.382-3.046,0.554C77.733,107.549,77.733,106.349,77.733,105.149z"/>
			<path fill-rule="evenodd" clip-rule="evenodd" fill="#F7DD1C" d="M84.933,105.149c0.369,0,0.738,0,1.108,0
				c-0.317,1.147,0.583,1.079,0.554,1.938c0.842-0.543,0.583-2.188,2.215-1.938c-0.392,1.416,1.02,3.001-0.277,3.6
				c-1.372-0.873-2.345-0.428-3.6,0C84.933,107.549,84.933,106.349,84.933,105.149z"/>
			<path fill-rule="evenodd" clip-rule="evenodd" fill="#F7DD1C" d="M90.749,105.149c0.461,0,0.923,0,1.385,0
				c0.719,0.85,0.649,2.489,1.662,3.046c-0.812,0.931-2.67-0.593-4.154,0.554C89.686,107.226,91.064,107.033,90.749,105.149z"/>
			<path fill-rule="evenodd" clip-rule="evenodd" fill="#F7DD1C" d="M97.949,105.149c1.789,0.117,1.5,0.669,3.046,0
				c-1.122,1.088-0.243,2.584,0.276,3.6c-1.362,0.439-0.415-1.431-1.662-1.107c-0.752-0.198,0.198,1.306-0.554,1.107
				C97.639,108.597,98.022,106.645,97.949,105.149z"/>
			<path fill-rule="evenodd" clip-rule="evenodd" fill="#F7DD1C" d="M117.333,105.149c0.185,0,0.369,0,0.554,0
				c1.026,0.092,0.609,3.068,0.277,3.6c-0.185,0-0.369,0-0.554,0C116.584,108.657,117.001,105.681,117.333,105.149z"/>
			<path fill-rule="evenodd" clip-rule="evenodd" fill="#EC3F35" d="M65.826,105.703c0.369,0,0.738,0,1.107,0
				c0,0.185,0,0.369,0,0.554c-0.369,0-0.738,0-1.107,0C65.826,106.072,65.826,105.888,65.826,105.703z"/>
			<path fill-rule="evenodd" clip-rule="evenodd" fill="#EC3F35" d="M74.687,105.703c0.369,0,0.738,0,1.108,0
				c0,0.83,0,1.661,0,2.492C74.42,108.37,74.67,106.92,74.687,105.703z"/>
			<path fill-rule="evenodd" clip-rule="evenodd" fill="#EC3F35" d="M95.179,105.703c0.461,0,0.923,0,1.385,0
				C96.988,106.554,94.756,106.554,95.179,105.703z"/>
			<path fill-rule="evenodd" clip-rule="evenodd" fill="#EC3F35" d="M107.087,105.703c0.369,0,0.738,0,1.107,0
				c0,0.185,0,0.369,0,0.554c-0.369,0-0.738,0-1.107,0C107.087,106.072,107.087,105.888,107.087,105.703z"/>
			<path fill-rule="evenodd" clip-rule="evenodd" fill="#EC3F35" d="M131.18,105.703c0.276,0,0.554,0,0.83,0
				c0,0.185,0,0.369,0,0.554c-0.276,0-0.554,0-0.83,0C131.18,106.072,131.18,105.888,131.18,105.703z"/>
			<path fill-rule="evenodd" clip-rule="evenodd" fill="#EC3F35" d="M70.533,107.088c0.185,0,0.369,0,0.554,0
				c0,0.185,0,0.369,0,0.554c-0.185,0-0.369,0-0.554,0C70.533,107.457,70.533,107.272,70.533,107.088z"/>
			<path fill-rule="evenodd" clip-rule="evenodd" fill="#F7DD1C" d="M53.087,108.195c0.327,0.134,0.628,0.295,0.831,0.554
				C53.482,108.723,52.958,108.786,53.087,108.195z"/>
			<path fill-rule="evenodd" clip-rule="evenodd" fill="#F7DD1C" d="M148.625,110.688c-0.276,0-0.554,0-0.83,0
				C147.552,109.716,148.513,110.399,148.625,110.688z"/>
			<path fill-rule="evenodd" clip-rule="evenodd" fill="#F7DD1C" d="M139.487,111.795c-0.114,0.349-0.357,0.566-0.831,0.554
				C138.77,112.001,139.014,111.783,139.487,111.795z"/>
			<path fill-rule="evenodd" clip-rule="evenodd" fill="#F7DD1C" d="M135.61,113.457c0.015,0.477-0.214,0.71-0.554,0.83
				c-0.013-0.381,0.13-0.607,0.276-0.83C135.426,113.457,135.518,113.457,135.61,113.457z"/>
			<path fill-rule="evenodd" clip-rule="evenodd" fill="#F7DD1C" d="M63.333,114.287c0.491,0.063,1.387-0.278,1.108,0.555
				c-0.277,0-0.554,0-0.831,0c-0.016-0.169-0.041-0.328-0.277-0.277C63.333,114.472,63.333,114.38,63.333,114.287z"/>
			<path fill-rule="evenodd" clip-rule="evenodd" fill="#EC3F35" d="M65.271,123.703c1.663-1.009,2.773,0.913,4.708,0.554
				c0.726,1.305,1.88,2.181,3.046,3.046c0.81,2.098,0.402,3.878,0,6.093c-2.109,1.768-4.549,3.205-8.031,3.6
				c-3.397-0.849-6.169-2.323-7.477-5.262C57.366,126.32,60.223,123.916,65.271,123.703z M62.502,133.949
				c1.526,0.043,2.754,0.384,4.154,0.554c1.829-0.663,3.469-1.516,3.877-3.6c0.599-6.791-10.352-6.078-10.246-0.277
				C61.144,131.615,61.601,133.004,62.502,133.949z"/>
			<path fill-rule="evenodd" clip-rule="evenodd" fill="#EC3F35" d="M82.441,123.703c4.459-0.304,8.611,2.096,8.308,7.477
				c-1.187,3.89-4.615,5.539-9.416,5.815c-2.106-1.125-4.457-2.004-6.092-3.6c-0.584-2.405-0.689-4.565,0.277-6.646
				c1.383-0.371,2.073-1.436,2.77-2.492C80.183,124.583,80.464,123.295,82.441,123.703z M77.733,128.41
				c-0.78,5.592,3.888,6.738,8.308,5.539c0.208-1.638,1.512-2.181,1.938-3.601C87.605,125.33,80.092,124.934,77.733,128.41z"/>
			<path fill-rule="evenodd" clip-rule="evenodd" fill="#EC3F35" d="M54.195,124.257c2.055,1.73,2.071,6.068-0.831,6.923
				c1.008,1.854,2.088,3.635,4.154,4.431c-0.461,1.107-2.824,0.314-4.154,0.554c-0.834-1.288-1.9-2.346-2.769-3.6
				c-1.195,0.189-0.255,2.515-0.554,3.6c-1.016,0-2.031,0-3.046,0c-0.586-3.475-0.136-7.987-0.277-11.907
				C48.691,122.909,51.88,124.198,54.195,124.257z M50.041,128.965c0.831,0,1.661,0,2.492,0c0-0.739,0-1.478,0-2.216
				c-0.908-0.016-1.059-0.787-2.215-0.554C50.031,126.924,49.986,127.895,50.041,128.965z"/>
			<path fill-rule="evenodd" clip-rule="evenodd" fill="#EC3F35" d="M90.749,123.703c3.151,0.172,6.998-0.353,9.692,0.276
				c0,0.738,0,1.478,0,2.216c-1.098,0.102-2.653-0.254-3.323,0.276c-0.629,2.694-0.105,6.542-0.277,9.692c-0.923,0-1.846,0-2.769,0
				c-0.25-3.689,0.783-7.019-0.277-9.969c-1.016,0-2.031,0-3.046,0C90.749,125.364,90.749,124.533,90.749,123.703z"/>
			<path fill-rule="evenodd" clip-rule="evenodd" fill="#EC3F35" d="M114.287,124.257c0.555,0.922,1.017,1.938,1.661,2.77
				c-0.128,0.979-0.492,1.723-1.107,2.215c2.704,1.516,2.732,5.71-0.277,6.923c-2.308,0-4.615,0-6.923,0c0-4.062,0-8.123,0-12.185
				C109.824,123.056,112.137,124.24,114.287,124.257z M110.964,128.965c1.527,0.327,1.439-0.961,1.938-1.662
				c-0.493-0.522-0.805-1.226-1.938-1.107C110.541,126.699,110.541,128.46,110.964,128.965z M110.687,133.949
				c0.99,0.545,1.479-0.129,2.77,0c0.187-1.396,0.691-1.379,0-2.492c-0.923,0-1.846,0-2.77,0
				C110.687,132.287,110.687,133.118,110.687,133.949z"/>
			<path fill-rule="evenodd" clip-rule="evenodd" fill="#EC3F35" d="M127.856,125.918c-1.499,0.532-3.888,0.174-5.815,0.277
				c-0.689,4.228,4.783,0.58,5.815,3.046c0.296,1.034-0.688,0.789-0.554,1.662c-2.085-0.173-2.765-0.032-4.985,0
				c-0.631,0.384-0.103,1.927-0.276,2.769c1.456,1.282,4.097-0.245,5.815,0.554c0,0.646,0,1.293,0,1.938c-2.954,0-5.908,0-8.861,0
				c0.176-3.978-0.358-8.665,0.276-12.185C121.573,124.106,128.459,121.972,127.856,125.918z"/>
			<path fill-rule="evenodd" clip-rule="evenodd" fill="#EC3F35" d="M138.656,123.703c0,0.83,0,1.661,0,2.492
				c-2.064,0.335-5.676-0.875-6.093,1.107c0.586,1.814,3.92,0.88,6.093,1.107c0,0.739,0,1.478,0,2.216
				c-1.563,0.744-4.896-0.28-6.093,0.831c0,0.738,0,1.477,0,2.215c1.509,1.514,6.064-1.319,6.093,1.938
				c-1.685,1.27-5.706,0.202-8.308,0.554c-0.464-4.143-0.359-8.392,0-12.461C133.118,123.703,135.887,123.703,138.656,123.703z"/>
			<path fill-rule="evenodd" clip-rule="evenodd" fill="#EC3F35" d="M141.148,123.703c5.173-0.328,9.798,0.584,8.308,6.092
				c-0.782,0.418-1.447,0.952-2.215,1.385c0.389,2.195,2.393,2.776,3.322,4.431c-0.736,1.167-2.276,0.443-3.6,0.554
				c-0.295-1.92-2.026-2.404-2.77-3.877c-0.993,0.837-0.637,2.599-0.554,3.877c-0.83,0-1.661,0-2.492,0
				C141.148,132.011,141.148,127.856,141.148,123.703z M143.641,128.965c1.998,0.151,3.813,0.121,3.323-2.216
				c-1.396,0.197-1.548-0.852-3.046-0.554C143.84,127.133,143.478,127.785,143.641,128.965z"/>
			<path fill-rule="evenodd" clip-rule="evenodd" fill="#F7DD1C" d="M60.287,130.626c-0.106-5.801,10.845-6.514,10.246,0.277
				c-0.408,2.084-2.048,2.937-3.877,3.6c-1.399-0.17-2.628-0.511-4.154-0.554C61.601,133.004,61.144,131.615,60.287,130.626z"/>
			<path fill-rule="evenodd" clip-rule="evenodd" fill="#F7DD1C" d="M87.979,130.349c-0.427,1.42-1.73,1.963-1.938,3.601
				c-4.42,1.199-9.088,0.053-8.308-5.539C80.092,124.934,87.605,125.33,87.979,130.349z"/>
			<path fill-rule="evenodd" clip-rule="evenodd" fill="#F7DD1C" d="M50.318,126.195c1.157-0.233,1.308,0.538,2.215,0.554
				c0,0.738,0,1.477,0,2.216c-0.831,0-1.662,0-2.492,0C49.986,127.895,50.031,126.924,50.318,126.195z"/>
			<path fill-rule="evenodd" clip-rule="evenodd" fill="#F7DD1C" d="M110.964,126.195c1.134-0.118,1.445,0.585,1.938,1.107
				c-0.499,0.701-0.411,1.989-1.938,1.662C110.541,128.46,110.541,126.699,110.964,126.195z"/>
			<path fill-rule="evenodd" clip-rule="evenodd" fill="#F7DD1C" d="M143.918,126.195c1.498-0.298,1.649,0.751,3.046,0.554
				c0.49,2.337-1.325,2.367-3.323,2.216C143.478,127.785,143.84,127.133,143.918,126.195z"/>
			<path fill-rule="evenodd" clip-rule="evenodd" fill="#F7DD1C" d="M110.687,131.457c0.924,0,1.847,0,2.77,0
				c0.691,1.113,0.187,1.097,0,2.492c-1.291-0.129-1.779,0.545-2.77,0C110.687,133.118,110.687,132.287,110.687,131.457z"/>
			<path fill-rule="evenodd" clip-rule="evenodd" fill="#EC3F35" d="M53.087,140.041c1.057,0.144,1.412,0.988,1.385,2.216
				c-1.092-0.466-0.847-0.466-1.938,0c-0.285-0.639-0.953-0.894-0.831-1.938C52.105,140.167,53.134,140.642,53.087,140.041z"/>
			<path fill-rule="evenodd" clip-rule="evenodd" fill="#EC3F35" d="M143.641,141.979c-0.017-1.485,1.985-2.146,3.323-1.385
				C146.63,142.327,145.069,142.5,143.641,141.979z"/>
			<path fill-rule="evenodd" clip-rule="evenodd" fill="#EC3F35" d="M57.795,142.533c1.113-0.179,0.659-1.925,2.492-1.384
				c0,1.568,0,3.138,0,4.707c-0.931-0.177-0.888-1.328-0.831-2.492c-1.3-0.285-0.737,1.293-1.938,1.107c0-0.369,0-0.738,0-1.107
				c-0.369,0-0.738,0-1.107,0c-0.625,0.206-0.108,1.554-0.277,2.216C53.698,144.002,56.119,138.599,57.795,142.533z"/>
			<path fill-rule="evenodd" clip-rule="evenodd" fill="#EC3F35" d="M63.333,141.149c2.471,0.021,2.563,2.422,3.046,4.431
				c-1.243-1.001-3.13-0.97-4.708-0.277C62.191,143.884,62.87,142.624,63.333,141.149z M63.61,143.364c0.277,0,0.554,0,0.831,0
				c0-0.185,0-0.369,0-0.554c-0.277,0-0.554,0-0.831,0C63.61,142.995,63.61,143.18,63.61,143.364z"/>
			<path fill-rule="evenodd" clip-rule="evenodd" fill="#EC3F35" d="M67.487,141.149c0.462,0,0.923,0,1.385,0
				c0,0.369,0,0.738,0,1.107c1.5,0.208,1.091-1.494,2.769-1.107c-0.318,0.881-1.076,1.323-1.661,1.938
				c0.633,0.751,1.534,1.234,1.661,2.492c-1.464,0.079-1.464-1.305-2.492-1.662c-0.601-0.047-0.125,0.982-0.277,1.385
				c-0.461,0-0.923,0-1.385,0C67.487,143.918,67.487,142.533,67.487,141.149z"/>
			<path fill-rule="evenodd" clip-rule="evenodd" fill="#EC3F35" d="M73.025,141.149c1.292,0,2.584,0,3.877,0
				c0.281,1.296-2.08-0.05-2.215,0.83c0.638,0.471,2.028,0.188,2.492,0.831c-0.196,1.004-2.018,0.382-3.046,0.554
				c0,0.369,0,0.738,0,1.107c0.462,0.738,2.553-0.153,3.046,0.555c-0.286,1.099-2.886,1.048-3.877,0.554
				C73.12,144.536,73.021,143.042,73.025,141.149z"/>
			<path fill-rule="evenodd" clip-rule="evenodd" fill="#EC3F35" d="M82.164,141.426c-0.289,1.426-2.146-0.438-2.77,0.554
				c0.471,1.006,2.025,0.93,3.046,1.385c0.621,2.547-3.542,3.341-4.154,1.385c1.015,0,2.031,0,3.046,0
				c0.23-1.614-1.354-1.414-2.769-1.385C76.676,141.273,80.376,140.552,82.164,141.426z"/>
			<path fill-rule="evenodd" clip-rule="evenodd" fill="#EC3F35" d="M86.595,141.149c1.436,0.133,3.437-0.299,4.431,0.276
				c0.047,0.601-0.982,0.126-1.385,0.277c0.107,1.677-0.019,3.119-0.554,4.153c-1.037-0.256-0.361-2.224-0.554-3.323
				C88.622,141.338,86.612,142.239,86.595,141.149z"/>
			<path fill-rule="evenodd" clip-rule="evenodd" fill="#EC3F35" d="M92.133,141.149c0.185,0,0.369,0,0.554,0
				c1.086-0.256,0.201,1.46,0.831,1.661c1.447-0.03,2.008-0.946,2.77-1.661c1.059,0.517,0.692,4.124,0,4.707
				c-0.918-0.097-0.435-1.596-0.554-2.492c-0.739,0-1.477,0-2.216,0c-0.8,0.123,0.247,2.093-0.554,2.216
				C91.348,145.441,92.463,142.572,92.133,141.149z"/>
			<path fill-rule="evenodd" clip-rule="evenodd" fill="#EC3F35" d="M97.949,141.149c0.738,0,1.477,0,2.215,0
				c-0.648,0.759-1.575,3.346,0,3.877c-0.292,0.724-1.125,0.905-2.215,0.83C98.12,143.954,98.698,142.575,97.949,141.149z"/>
			<path fill-rule="evenodd" clip-rule="evenodd" fill="#EC3F35" d="M101.549,141.149c1.18,0.111,2.853-0.269,3.6,0.276
				c0.029,0.952,0.143,1.989-0.554,2.216c0.426,0.681,1.236,0.979,1.107,2.215c-1.572,0.004-1.267-1.871-2.492-2.215
				c-0.491,0.615-0.122,2.093-1.107,2.215C100.963,145.243,101.81,142.642,101.549,141.149z M102.934,142.811
				c0.369,0,0.738,0,1.107,0c0.128-0.867-0.241-1.236-1.107-1.107C102.934,142.072,102.934,142.441,102.934,142.811z"/>
			<path fill-rule="evenodd" clip-rule="evenodd" fill="#EC3F35" d="M111.241,141.426c-0.135,1.686-1.404-0.177-2.77,0.277
				c0.189,1.933,3.801,0.444,2.77,3.6c-1.236,0.538-3.633,0.978-4.154-0.554c0.923,0,1.847,0,2.77,0
				c0.229-1.799-2.189-0.949-2.77-1.938C106.452,140.509,110.067,140.998,111.241,141.426z"/>
			<path fill-rule="evenodd" clip-rule="evenodd" fill="#EC3F35" d="M112.349,141.149c1.477,0,2.954,0,4.431,0
				c-0.11,0.904-1.536,0.494-1.938,1.107c0,1.107,0,2.215,0,3.323c-1.483-0.107-1.096-1.936-0.554-2.77
				C114.065,141.832,112.62,142.077,112.349,141.149z"/>
			<path fill-rule="evenodd" clip-rule="evenodd" fill="#EC3F35" d="M124.256,141.426c-0.588,2.526,1.732,2.145,1.385,4.431
				c-0.811-0.02-1.561-0.1-1.385-1.107c-1.867-0.564-2.616,1.118-3.6,0.554C121.478,143.778,121.81,140.416,124.256,141.426z
				 M122.595,143.364c0.185,0,0.369,0,0.554,0c0-0.185,0-0.369,0-0.554c-0.185,0-0.369,0-0.554,0
				C122.595,142.995,122.595,143.18,122.595,143.364z"/>
			<path fill-rule="evenodd" clip-rule="evenodd" fill="#EC3F35" d="M130.349,141.149c0.646,0,1.292,0,1.938,0
				c0.636,1.83-0.369,2.231-0.277,4.153c-0.771,0.258-1.646,1.002-2.215,0c-0.284-0.931,0.861-0.431,1.385-0.554
				C131.759,143.234,131.429,141.745,130.349,141.149z"/>
			<path fill-rule="evenodd" clip-rule="evenodd" fill="#EC3F35" d="M137.549,141.149c0.413,0.324,0.326,1.15,1.107,1.107
				c1.109,4.142-5.028,4.771-5.262,1.385C133.204,141.235,135.031,140.847,137.549,141.149z M134.502,143.918
				c0.349,0.113,0.566,0.357,0.555,0.831c0.738,0,1.477,0,2.215,0c0.012-0.911,0.468-1.379,0.277-2.492
				C136.074,141.48,134.125,141.489,134.502,143.918z"/>
			<path fill-rule="evenodd" clip-rule="evenodd" fill="#EC3F35" d="M138.656,141.149c1.304-0.288,1.393,0.638,1.938,1.107
				c1.53,0.423,0.986-1.229,2.216-1.107c-0.09,0.908-1.178,3.014-1.662,4.431C139.887,144.533,139.98,142.133,138.656,141.149z"/>
			<path fill-rule="evenodd" clip-rule="evenodd" fill="#EC3F35" d="M146.964,141.149c0.277,0,0.554,0,0.831,0
				c0,0.276,0,0.554,0,0.83c-0.277,0-0.554,0-0.831,0C146.964,141.703,146.964,141.426,146.964,141.149z"/>
			<path fill-rule="evenodd" clip-rule="evenodd" fill="#F7DD1C" d="M102.934,141.703c0.866-0.129,1.235,0.24,1.107,1.107
				c-0.369,0-0.738,0-1.107,0C102.934,142.441,102.934,142.072,102.934,141.703z"/>
			<path fill-rule="evenodd" clip-rule="evenodd" fill="#F7DD1C" d="M137.549,142.257c0.19,1.113-0.266,1.581-0.277,2.492
				c-0.738,0-1.477,0-2.215,0c0.012-0.474-0.206-0.718-0.555-0.831C134.125,141.489,136.074,141.48,137.549,142.257z"/>
			<path fill-rule="evenodd" clip-rule="evenodd" fill="#F7DD1C" d="M63.61,142.811c0.277,0,0.554,0,0.831,0
				c0,0.185,0,0.369,0,0.554c-0.277,0-0.554,0-0.831,0C63.61,143.18,63.61,142.995,63.61,142.811z"/>
			<path fill-rule="evenodd" clip-rule="evenodd" fill="#F7DD1C" d="M122.595,142.811c0.185,0,0.369,0,0.554,0
				c0,0.185,0,0.369,0,0.554c-0.185,0-0.369,0-0.554,0C122.595,143.18,122.595,142.995,122.595,142.811z"/>
			<path fill-rule="evenodd" clip-rule="evenodd" fill="#EC3F35" d="M43.671,148.072c0.277,0,0.554,0,0.831,0
				c0.545,0.747,0.165,2.42,0.277,3.6c-0.461,0-0.923,0-1.385,0C44.013,150.729,43.365,148.629,43.671,148.072z"/>
			<path fill-rule="evenodd" clip-rule="evenodd" fill="#EC3F35" d="M45.333,148.072c0.646,0,1.292,0,1.938,0
				c0.818,1.624-1.236,2.394,0,3.6c-0.646,0-1.292,0-1.938,0c-0.354-1.738,1.667-1.103,1.385-2.769
				c-0.853-0.208-0.337,0.954-1.385,0.554C45.333,148.995,45.333,148.533,45.333,148.072z"/>
			<path fill-rule="evenodd" clip-rule="evenodd" fill="#EC3F35" d="M48.656,148.072c0.738,0,1.477,0,2.215,0
				c-0.119,1.596-0.085,3.039,0.831,3.6c-1.665-0.049-1.755-0.146-3.323,0C48.294,150.295,48.423,149.131,48.656,148.072z"/>
			<path fill-rule="evenodd" clip-rule="evenodd" fill="#EC3F35" d="M143.918,151.118c0.461,0,0.923,0,1.385,0
				c0-0.276,0-0.554,0-0.831c-0.295-0.536-1.596-0.066-1.662-0.83C142.834,149.845,144.132,150.411,143.918,151.118
				c-0.679,0.244-1.017,0.83-2.216,0.554c0-0.369,0-0.738,0-1.107c0.614-0.152,0.395,0.528,0.831,0.554
				c0.773-0.488-1.035-1.559,0.277-1.938c-0.358-0.542-1.343,0.432-1.108-1.107c0.554,0,1.108,0,1.662,0
				c-0.078,0.447,0.262,0.477,0.276,0.831c0.325-0.045,0.233-0.505,0.277-0.831c0.646,0,1.292,0,1.938,0
				c0.094,0.556-0.057,0.866-0.554,0.831c0.154,0.398,0.432,0.675,0.83,0.83c0.612-0.034,0.118-1.175,0.277-1.661
				c0.554,0,1.107,0,1.661,0c-0.422,1.104-0.774,1.751,0.831,1.938C148.483,152.49,145.27,151.588,143.918,151.118z
				 M147.518,151.118c0-0.369,0-0.738,0-1.107c-0.369,0-0.738,0-1.107,0C146.281,150.878,146.65,151.247,147.518,151.118z"/>
			<path fill-rule="evenodd" clip-rule="evenodd" fill="#EC3F35" d="M153.61,148.072c1.194,0.189,0.255,2.515,0.554,3.6
				c-0.554,0-1.107,0-1.662,0c-0.151-0.402,0.324-1.431-0.276-1.385c-0.931-0.284-0.432,0.861-0.554,1.385
				c-1.166,0.428-0.044-1.433-0.831-1.385c-0.787-0.048,0.335,1.813-0.831,1.385c0.057-0.866-0.187-2.032,0.277-2.492
				c1.018,0.09,2.451-0.236,3.046,0.277C153.934,149.503,153.459,148.475,153.61,148.072z"/>
			<path fill-rule="evenodd" clip-rule="evenodd" fill="#EC3F35" d="M56.133,148.903c0.303,1.734-1.006,1.736,0,2.769
				c-1.2,0-2.4,0-3.6,0c0.077-0.631-0.067-1.041-0.554-1.107C52.769,148.193,54.187,149.786,56.133,148.903z M53.087,150.842
				c0.185,0,0.369,0,0.554,0c0-0.278,0.225-0.33,0.277-0.555c-0.354-0.015-0.384-0.354-0.831-0.276
				C53.087,150.287,53.087,150.564,53.087,150.842z M54.472,150.564c0.185,0,0.369,0,0.554,0c0-0.185,0-0.369,0-0.554
				c-0.185,0-0.369,0-0.554,0C54.472,150.195,54.472,150.38,54.472,150.564z"/>
			<path fill-rule="evenodd" clip-rule="evenodd" fill="#F7DD1C" d="M53.087,150.011c0.447-0.078,0.477,0.262,0.831,0.276
				c-0.053,0.225-0.278,0.276-0.277,0.555c-0.185,0-0.369,0-0.554,0C53.087,150.564,53.087,150.287,53.087,150.011z"/>
			<path fill-rule="evenodd" clip-rule="evenodd" fill="#F7DD1C" d="M54.472,150.011c0.185,0,0.369,0,0.554,0
				c0,0.185,0,0.369,0,0.554c-0.185,0-0.369,0-0.554,0C54.472,150.38,54.472,150.195,54.472,150.011z"/>
			<path fill-rule="evenodd" clip-rule="evenodd" fill="#F7DD1C" d="M146.41,150.011c0.369,0,0.738,0,1.107,0
				c0,0.369,0,0.738,0,1.107C146.65,151.247,146.281,150.878,146.41,150.011z"/>
			<path fill-rule="evenodd" clip-rule="evenodd" fill="#F7DD1C" d="M92.687,37.026c3.493-0.848,10.088-0.91,13.569,0
				C102.016,36.73,96.885,36.524,92.687,37.026z"/>
			<path fill-rule="evenodd" clip-rule="evenodd" fill="#F7DD1C" d="M84.379,37.58c0.102,0.84-0.902,0.575-1.385,0.831
				C83.472,38.149,83.448,37.387,84.379,37.58z"/>
			<path fill-rule="evenodd" clip-rule="evenodd" fill="#F7DD1C" d="M79.395,38.964c0.235-0.412,0.892-0.401,1.385-0.554
				C80.544,38.821,80.083,39.006,79.395,38.964z"/>
			<path fill-rule="evenodd" clip-rule="evenodd" fill="#F7DD1C" d="M73.025,40.626c0.182-0.372,0.592-0.516,1.108-0.554
				C73.951,40.444,73.541,40.588,73.025,40.626z"/>
			<path fill-rule="evenodd" clip-rule="evenodd" fill="#F7DD1C" d="M64.441,43.672c0.042-0.512,0.938-0.17,1.107-0.554
				C65.482,43.605,65.072,43.75,64.441,43.672z"/>
			<path fill-rule="evenodd" clip-rule="evenodd" fill="#F7DD1C" d="M56.133,47.826c0.043,0.781-0.783,0.694-1.108,1.107
				C54.982,48.152,55.808,48.24,56.133,47.826z"/>
			<path fill-rule="evenodd" clip-rule="evenodd" fill="#F7DD1C" d="M54.472,48.934c0.117,0.948-0.83,0.832-1.108,1.385
				c-0.092,0-0.185,0-0.277,0C53.164,49.473,54.325,49.71,54.472,48.934z"/>
			<path fill-rule="evenodd" clip-rule="evenodd" fill="#F7DD1C" d="M51.979,50.872c0.084,0.73-0.578,0.714-1.108,0.831
				c0.031-0.523,0.916-0.192,0.831-0.831C51.795,50.872,51.887,50.872,51.979,50.872z"/>
			<path fill-rule="evenodd" clip-rule="evenodd" fill="#F7DD1C" d="M48.379,53.918c-0.832,1.106-1.7,2.177-3.046,2.769
				C46.426,55.842,47.219,54.697,48.379,53.918z"/>
			<path fill-rule="evenodd" clip-rule="evenodd" fill="#F7DD1C" d="M41.733,61.672c0.043,0.782-0.783,0.694-1.108,1.108
				c0.082-0.564,0.749-0.543,0.831-1.108C41.548,61.672,41.641,61.672,41.733,61.672z"/>
			<path fill-rule="evenodd" clip-rule="evenodd" fill="#F7DD1C" d="M36.472,74.688c0.027,0.858-0.125,1.536-0.554,1.938
				C36.025,75.903,36.06,75.106,36.472,74.688z"/>
			<path fill-rule="evenodd" clip-rule="evenodd" fill="#F7DD1C" d="M35.918,81.333c0.411,0.512,0.53,1.316,0.554,2.215
				C36.061,83.037,35.941,82.233,35.918,81.333z"/>
			<path fill-rule="evenodd" clip-rule="evenodd" fill="#F7DD1C" d="M37.025,87.426c0.372,0.182,0.516,0.592,0.554,1.108
				C37.208,88.352,37.063,87.942,37.025,87.426z"/>
			<path fill-rule="evenodd" clip-rule="evenodd" fill="#F7DD1C" d="M45.333,101.549c1.759,0.55,2,2.616,3.6,3.323
				c0,0.093,0,0.185,0,0.277c-1.607-0.701-1.947-2.669-3.6-3.323C45.333,101.733,45.333,101.642,45.333,101.549z"/>
			<path fill-rule="evenodd" clip-rule="evenodd" fill="#F7DD1C" d="M50.872,106.257c0.55,0.188,0.634,0.843,1.108,1.107
				C51.111,107.494,51.199,106.668,50.872,106.257z"/>
			<path fill-rule="evenodd" clip-rule="evenodd" fill="#F7DD1C" d="M60.01,112.349c0.447,0.385,1.427,0.234,1.661,0.831
				C61.056,112.965,60.17,113.02,60.01,112.349z"/>
			<path fill-rule="evenodd" clip-rule="evenodd" fill="#F7DD1C" d="M136.164,113.457c0.042-0.513,0.938-0.17,1.107-0.554
				C137.205,113.39,136.795,113.534,136.164,113.457z"/>
			<path fill-rule="evenodd" clip-rule="evenodd" fill="#F7DD1C" d="M142.256,109.856c0.19,0.929-0.464,1.013-1.107,1.108
				C141.623,110.7,141.706,110.045,142.256,109.856z"/>
			<path fill-rule="evenodd" clip-rule="evenodd" fill="#F7DD1C" d="M155.271,98.503c-0.173,0.658-0.372,1.289-1.107,1.385
				C154.578,99.471,154.659,98.721,155.271,98.503z"/>
			<path fill-rule="evenodd" clip-rule="evenodd" fill="#F7DD1C" d="M161.364,87.149c0.041,0.688-0.144,1.149-0.554,1.385
				C160.963,88.041,160.952,87.384,161.364,87.149z"/>
			<path fill-rule="evenodd" clip-rule="evenodd" fill="#F7DD1C" d="M161.918,74.688c0.599,0.508,0.583,1.632,0.554,2.769
				C161.974,76.847,162.229,75.483,161.918,74.688z"/>
			<path fill-rule="evenodd" clip-rule="evenodd" fill="#F7DD1C" d="M160.256,68.042c0.513,0.042,0.17,0.938,0.555,1.107
				C160.323,69.083,160.179,68.672,160.256,68.042z"/>
			<path fill-rule="evenodd" clip-rule="evenodd" fill="#F7DD1C" d="M148.902,52.534c0.475,0.356,1.089,0.573,1.107,1.385
				c-1.005,0.266-0.232-1.245-1.107-1.108C148.902,52.718,148.902,52.626,148.902,52.534z"/>
			<path fill-rule="evenodd" clip-rule="evenodd" fill="#F7DD1C" d="M138.103,45.333c0.744-0.19,0.535,0.573,0.831,0.831
				c-0.364-0.098-0.436-0.488-0.831-0.554C138.103,45.518,138.103,45.426,138.103,45.333z"/>
			<path fill-rule="evenodd" clip-rule="evenodd" fill="#F7DD1C" d="M126.748,40.626c0.517,0.038,0.926,0.182,1.108,0.554
				C127.341,41.142,126.931,40.998,126.748,40.626z"/>
			<path fill-rule="evenodd" clip-rule="evenodd" fill="#EC3F35" d="M119.549,38.964c1.772,0.351,3.574,0.671,5.262,1.108
				c0,0.092,0,0.185,0,0.277c0.223,0.146,0.449,0.289,0.83,0.277c0.369,0,0.738,0,1.107,0c0.183,0.372,0.593,0.516,1.108,0.554
				c1.301-0.286,1.065,0.965,2.492,0.554c-0.051,0.604,0.227,0.881,0.831,0.831c2.672,0.559,4.586,1.875,6.923,2.769
				c0,0.092,0,0.185,0,0.277c0.396,0.066,0.467,0.456,0.831,0.554c1.96,0.624,3.456,1.712,4.984,2.769c0,0.092,0,0.185,0,0.277
				c0.363,0.098,0.436,0.488,0.83,0.554c1.649,0.658,2.582,2.034,4.154,2.769c0,0.092,0,0.185,0,0.277
				c0.875-0.137,0.103,1.374,1.107,1.108c4.55,3.574,7.91,8.336,10.246,14.123c-0.077,0.631,0.067,1.041,0.555,1.107
				c-0.117,1.132,0.911,1.119,0.554,2.492c0.004,0.734-0.154,1.631,0.554,1.662c0,0.462,0,0.923,0,1.385
				c0.312,0.796,0.056,2.159,0.554,2.769c0,1.2,0,2.4,0,3.6c-0.093,0-0.185,0-0.277,0c0.196,1.027-0.473,1.188-0.276,2.215
				c0,0.554,0,1.108,0,1.662c-0.093,0-0.185,0-0.277,0c-0.215,0.247-0.298,0.625-0.276,1.108c0,0.369,0,0.738,0,1.107
				c-0.412,0.235-0.401,0.892-0.554,1.385c0,0.185,0,0.369,0,0.554c-0.186,0-0.37,0-0.555,0c0,0.185,0,0.369,0,0.554
				c-1.227,3.389-2.699,6.531-4.984,8.862c-0.612,0.218-0.693,0.968-1.107,1.385c-3.299,3.993-7.003,7.582-11.908,9.969
				c-0.55,0.188-0.633,0.844-1.107,1.108c-0.386,0.444-1.366,0.294-1.661,0.83c-0.474-0.012-0.718,0.206-0.831,0.554
				c-0.853-0.206-0.532,0.761-1.385,0.555c-0.17,0.384-1.065,0.041-1.107,0.554c-0.185,0-0.369,0-0.554,0c-0.093,0-0.185,0-0.277,0
				c-0.146,0.223-0.289,0.449-0.276,0.83c-0.447-0.078-0.478,0.262-0.831,0.277c7.662,0.646,16.522,0.093,24.646,0.277
				c0,13.292,0,26.584,0,39.877c-39.785,0-79.57,0-119.354,0c0.029-13.504-0.047-27.106,0-39.877c8.031,0,16.062,0,24.092,0
				c0.277,0,0.554,0,0.831,0c0.279-0.833-0.617-0.491-1.108-0.555c-0.724-0.198-0.942-0.903-1.662-1.107
				c-0.234-0.597-1.214-0.446-1.661-0.831c-2.481-0.75-4.195-2.266-6.092-3.6c-0.203-0.259-0.504-0.42-0.831-0.554
				c-0.694,0.048-0.672-0.62-1.107-0.831c-0.474-0.265-0.558-0.919-1.108-1.107c-1.031,0.016-0.691-1.34-1.938-1.107
				c0-0.093,0-0.185,0-0.277c-1.601-0.707-1.841-2.773-3.6-3.323c-3.292-3.63-6.05-7.796-7.754-13.015
				c-0.038-0.516-0.182-0.926-0.554-1.108c0-0.461,0-0.923,0-1.384c-0.038-0.516-0.182-0.926-0.554-1.108c0-0.461,0-0.923,0-1.385
				c-0.023-0.899-0.143-1.703-0.554-2.215c0-1.569,0-3.138,0-4.708c0.428-0.402,0.581-1.08,0.554-1.938c0-0.369,0-0.738,0-1.108
				c0.092,0,0.185,0,0.277,0c0.232-0.321,0.365-0.742,0.277-1.384c-0.241-1.349,0.379-1.837,0.554-2.77
				c0.258-0.295,1.022-0.086,0.831-0.831c0.102-2.575,1.564-3.79,2.215-5.815c0.325-0.414,1.151-0.326,1.108-1.108
				c1.025-1.835,2.384-3.339,3.6-4.984c1.346-0.592,2.214-1.663,3.046-2.769c0.34-0.121,0.569-0.354,0.554-0.831
				c0.556,0.094,0.867-0.057,0.831-0.554c0.694,0.048,0.672-0.62,1.107-0.831c0.53-0.116,1.192-0.1,1.108-0.831
				c0.55-0.003,0.352-0.755,1.107-0.554c0.092,0,0.185,0,0.277,0c0.278-0.553,1.225-0.437,1.108-1.385c0.185,0,0.369,0,0.554,0
				c0.325-0.414,1.151-0.326,1.108-1.107c3.11-1.043,4.99-3.318,8.308-4.154c0.631,0.078,1.041-0.066,1.107-0.554
				c1.105,0.274,0.834-0.828,1.938-0.554c0.591,0.129,0.528-0.396,0.554-0.831c2.205,0.174,2.668-1.393,4.984-1.108
				c0.516-0.038,0.926-0.182,1.108-0.554c0.957-0.335,1.834-0.75,3.323-0.554c0.474,0.012,0.717-0.206,0.831-0.554
				c0.369,0,0.738,0,1.107,0c0.688,0.042,1.149-0.143,1.385-0.554c0.738,0,1.477,0,2.215,0c0.482-0.256,1.486,0.009,1.385-0.831
				c0.554,0,1.107,0,1.662,0c0.74-0.183,1.73-0.116,2.215-0.554c1.477,0,2.954,0,4.431,0c4.198-0.502,9.329-0.296,13.569,0
				c1.478,0,2.954,0,4.431,0c0.513,0.411,1.316,0.531,2.216,0.554c0.554,0,1.107,0,1.661,0c0.242,0.405,0.221,1.073,1.108,0.831
				c0.738,0,1.477,0,2.215,0c0,0.092,0,0.185,0,0.277C118.539,38.681,118.702,39.165,119.549,38.964z M53.087,54.195
				c-1.028,0.784-0.591,4.313-0.277,5.538c1.798-0.165,4.291-1.231,5.815,0c-0.353,13.771,0.716,28.962-0.554,41.815
				c2.769,0,5.538,0,8.308,0c-1.25-12.748-0.231-30.519-0.554-42.369c3.082-0.512,5.207,0.831,7.2,0.554
				c-0.331-1.607,0.687-4.563-0.554-5.261C67.177,53.364,58.845,53.929,53.087,54.195z M90.472,64.995
				c2.992-3.911,0.706-10.588-3.877-11.077c-3.969,0.086-9.206-0.227-11.908,0.277c-0.288,7.256,0.834,12.806-0.277,19.384
				c2.186,0.544,4.631,0.137,6.923,0c-0.139-1.62-1.158-3.819-0.277-5.538c1.206,1.471,2.327,3.027,2.77,5.261
				c2.085,0.768,4.929,0.517,7.2,0.277c-0.998-2.51-2.348-4.667-3.877-6.646C88.511,66.542,89.488,65.766,90.472,64.995z
				 M93.518,54.195c0.513,4.87,0.762,13.693-0.277,19.384c2.317,0.108,4.63,0.241,7.2,0c-1.059-5.279-0.54-14.57-0.276-19.384
				C98,54.022,95.774,53.861,93.518,54.195z M118.44,66.38c0.749-2.205,1.482-4.426,1.108-7.754
				c-1.163-2.252-2.714-4.117-5.539-4.708c-3.401,0.27-7.478-0.285-9.969,0.277c-0.062,0.216-0.232,0.322-0.554,0.277
				c0.981,5.268,0.797,13.808,0,19.107c1.972,0.532,5.185,0.307,7.199,0c-1.21-0.636-0.771-2.92-0.83-4.708
				C113.417,68.741,116.184,67.815,118.44,66.38z M120.656,54.195c0,6.461,0,12.923,0,19.384c3.306,0.066,8.15,0.036,11.354,0
				c0.045-2.233,0.093-2.82,0-4.984c-1.011,0.802-3.659,1.245-5.262,0.554c0-4.984,0-9.969,0-14.954
				C125.85,54.001,122.289,53.582,120.656,54.195z M133.948,54.195c0.325,5.828,0.846,13.424,0,19.384c3.877,0,7.754,0,11.631,0
				c0.447-1.106,0.447-3.878,0-4.984c-0.944,0.056-4.352,1.091-5.538-0.277c-0.075-1.09,0.106-1.924,0.831-2.215
				c1.14-0.217,1.421,0.425,2.492,0.277c0.682-1.506-0.295-3.022,0-4.985c-0.776,0.332-1.911,0.305-3.047,0.277
				c0.176-0.932-0.356-2.572,0.277-3.046c1.754,0,3.508,0,5.262,0c-0.209-1.287,0.049-2.957-0.554-4.431
				C142.146,53.676,136.244,53.839,133.948,54.195z M83.548,78.564c0.019,1.795-1.533,3.363-2.492,4.984
				c-0.927-1.31-3.04-2.525-2.215-4.708c-2.799-0.676-5.421,0.146-8.308-0.277c1.594,4.406,5.174,6.826,6.646,11.354
				c-2.167,4.11-4.896,7.658-7.2,11.63c2.584,0,5.169,0,7.754,0c0.198-2.664,1.818-3.905,2.769-5.815
				c2.356,0.967,3.152,3.494,4.154,5.815c2.329-0.349,6.064,0.71,7.477-0.554c-2.628-3.279-4.546-7.269-7.2-10.523
				c0.218-5.69,4.283-7.532,5.815-11.908C88.529,78.379,86.364,78.597,83.548,78.564z M123.148,78.841
				c2.174,3.918,5.089,7.096,6.646,11.631c-2.324,3.584-4.586,7.229-6.646,11.077c2.421-0.164,5.511,0.342,7.477-0.276
				c0.086-1.763,1.265-3.831,2.216-5.539c0.277,0,0.554,0,0.831,0c1.123,1.738,2.453,3.27,2.769,5.815
				c1.895-0.463,5.722,0.7,7.478-0.554c-1.831-3.799-4.285-6.976-6.369-10.523c-0.893-3.013,2.26-3.886,2.215-6.923
				c1.903-0.958,2.533-3.19,3.601-4.984c-2.348-0.72-4.893,0.11-7.2-0.277c-0.146,2.061-1.061,4.05-2.77,5.261
				c-1.536-1.048-2.165-3.003-2.77-4.984C128.224,78.155,125.273,78.214,123.148,78.841z M96.564,79.395
				c2.476,3.155,4.564,6.698,6.646,10.246c-2.086,4.098-4.676,7.693-6.923,11.631c2.033,0.644,5.26,0.094,7.754,0.276
				c-0.11-2.971,1.53-4.192,2.77-5.815c0.185,0,0.369,0,0.554,0c0.813,1.956,2.691,2.847,2.492,5.815
				c2.503-0.266,6.133,0.595,7.754-0.554c-2.313-3.872-5.407-6.962-6.924-11.631c1.65-3.981,4.035-7.227,6.37-10.523
				c-2.302-0.155-4.821,0.086-7.754,0c-0.169,2.231-1.248,3.552-2.492,4.708c-1.401-1.091-2.711-2.274-2.77-4.708
				C101.072,79.356,97.514,77.682,96.564,79.395z M109.856,104.872c0,1.292,0,2.585,0,3.877c1.027-0.172,2.85,0.45,3.046-0.554
				c-0.616-0.215-1.502-0.16-1.661-0.831c0.367-0.278,1.03-0.262,1.107-0.831c-0.205-0.441-1.355,0.063-1.107-0.83
				c0.49-0.063,1.387,0.279,1.107-0.554C111.992,103.97,110.973,105.176,109.856,104.872z M113.456,105.149
				c-0.394,0.926-0.394,2.673,0,3.6c0.831,0,1.662,0,2.492,0c0.569-0.446,0.643-1.389,0.554-2.492
				c-1.078-0.063-0.14,1.891-1.384,1.661c-0.354-0.015-0.384-0.354-0.831-0.276c0-0.646,0-1.293,0-1.938
				c1.027,0.104,1.889,0.042,1.938-0.831C115.229,104.015,114.478,105.175,113.456,105.149z M118.995,105.149
				c-0.441,1.918,1.296,1.657,1.938,2.492c-0.913,0.011-1.96-0.113-1.938,0.83c0.384,0.632,1.927,0.104,2.769,0.277
				c0.692-0.843,0.235-1.114,0.277-2.492c-0.574-0.165-1.819,0.342-1.938-0.277c0.066-0.856,2.279,0.434,1.938-0.83
				C121.246,104.226,119.938,104.775,118.995,105.149z M123.148,104.872c0.915,0.746-0.022,3.346,1.107,3.877
				c0.842-0.463,0.276-2.976,1.385-3.877C125.332,104.315,123.499,104.555,123.148,104.872z M126.748,104.872
				c0,1.292,0,2.585,0,3.877c0.695-0.229,2.385,0.538,2.216-0.554c0.443-1.09-1.196-0.097-1.107-0.831
				c-0.11-0.663,1.261,0.153,0.83-0.831c0.049-0.786-1.812,0.335-1.384-0.83c0.57-0.168,1.924,0.446,1.661-0.554
				C129.017,103.972,127.229,104.834,126.748,104.872z M130.071,105.149c0.288,1.712-0.756,3.071,0.554,3.6
				c0.479-0.168-0.021-1.313,0.555-1.385c0.964,0.144,0.551,1.664,1.938,1.385c-0.729-0.986-0.716-2.408,0.276-3.046
				C132.917,104.627,131.032,104.22,130.071,105.149z M133.948,108.749c1.016,0,2.031,0,3.047,0c0-0.369,0-0.738,0-1.107
				c-0.574-0.165-1.819,0.342-1.938-0.277c-0.089-0.734,1.551,0.259,1.107-0.831c0.088-0.734-1.552,0.26-1.107-0.83
				c1.07,0.24,1.198-0.464,1.661-0.831C134.104,103.431,133.522,106.245,133.948,108.749z M139.764,104.595
				c-0.735,0.003-1.581-0.104-1.938,0.277c-0.557,0.828-0.156,2.612-0.276,3.877c1.496,0.112,2.76-0.01,3.6-0.554
				c-0.278-0.921,0.612-3.013-0.554-3.046c-0.185,0-0.369,0-0.554,0c-0.899,0.208,0.491,2.706-0.831,2.492
				C137.721,107.013,139.12,104.895,139.764,104.595z M94.349,108.749c1.09,0.443,0.096-1.196,0.831-1.107
				c1.531-0.423,0.986,1.229,2.215,1.107c-0.674-1.711,0.056-1.434,0-3.6c-1.321,0.214-1.782-0.434-3.046-0.277
				C94.599,106.345,93.942,107.999,94.349,108.749z M105.979,105.149c-0.637,0.655-0.1,2.485-0.277,3.6
				c1.298,0.282,1.247-0.784,1.662-1.385c0.518,0.405,0.326,1.52,1.384,1.385c0-1.2,0-2.4,0-3.6
				C108.063,104.907,106.602,104.608,105.979,105.149z M62.779,108.749c1.36,0.067-0.096-2.681,0.831-3.046c0.277,0,0.554,0,0.831,0
				c0,1.015,0,2.03,0,3.046c1.644,0.629,1.001-1.029,1.938-1.107c1.133-0.303-0.038,1.698,1.385,1.107
				c-0.008-1.219,0.086-1.569,0.277-3.6c-2.308,0-4.616,0-6.923,0C62.62,105.4,61.711,108.063,62.779,108.749z M69.425,108.749
				c1.276-1.04,2.008-0.064,3.6,0c-0.04-1.621-1.75-1.573-1.385-3.6c-0.369,0-0.738,0-1.107,0
				C70.381,106.565,69.251,107.005,69.425,108.749z M73.579,108.749c1.415,0.03,2.914,0.145,3.6-0.554
				c-0.075-0.94,0.214-2.245-0.277-2.77c-0.669-0.53-2.225-0.175-3.323-0.276C73.579,106.349,73.579,107.549,73.579,108.749z
				 M77.733,108.749c1.028-0.172,2.85,0.45,3.046-0.554c-0.574-0.165-1.819,0.342-1.938-0.277c0.601-0.415,1.667-0.364,1.385-1.661
				c-0.402-0.151-1.432,0.323-1.385-0.277c-0.048-0.786,1.812,0.335,1.385-0.83c-0.831,0-1.662,0-2.492,0
				C77.733,106.349,77.733,107.549,77.733,108.749z M84.933,108.749c1.255-0.428,2.229-0.873,3.6,0
				c1.296-0.599-0.115-2.184,0.277-3.6c-1.633-0.249-1.374,1.396-2.215,1.938c0.029-0.859-0.871-0.791-0.554-1.938
				c-0.37,0-0.739,0-1.108,0C84.933,106.349,84.933,107.549,84.933,108.749z M89.641,108.749c1.484-1.146,3.342,0.377,4.154-0.554
				c-1.013-0.557-0.942-2.196-1.662-3.046c-0.462,0-0.923,0-1.385,0C91.064,107.033,89.686,107.226,89.641,108.749z M99.056,108.749
				c0.752,0.198-0.198-1.306,0.554-1.107c1.247-0.323,0.299,1.547,1.662,1.107c-0.52-1.016-1.398-2.512-0.276-3.6
				c-1.547,0.669-1.257,0.117-3.046,0C98.022,106.645,97.639,108.597,99.056,108.749z M117.61,108.749c0.185,0,0.369,0,0.554,0
				c0.332-0.531,0.749-3.508-0.277-3.6c-0.185,0-0.369,0-0.554,0C117.001,105.681,116.584,108.657,117.61,108.749z M40.625,116.78
				c0.184,12.185-0.368,25.105,0.277,36.83c38.861-0.185,78.462,0.369,116.861-0.276c-0.174-12.128,0.354-26.353-0.276-37.108
				c-8.587-0.644-18.368-0.094-27.416-0.276c-16.312,7.164-45.695,7.144-62.03,0c-7.907,0.09-17.798-0.063-26.585,0
				C41.058,116.104,40.78,116.381,40.625,116.78z"/>
			<path fill-rule="evenodd" clip-rule="evenodd" fill="#F7DD1C" d="M114.563,37.58c0.551,0.004,0.353,0.756,1.108,0.554
				c0,0.092,0,0.185,0,0.277C114.784,38.652,114.806,37.984,114.563,37.58z"/>
			<path fill-rule="evenodd" clip-rule="evenodd" fill="#F7DD1C" d="M110.687,37.026c0.9,0.023,1.704,0.143,2.216,0.554
				C112.003,37.557,111.199,37.437,110.687,37.026z"/>
			<path fill-rule="evenodd" clip-rule="evenodd" fill="#F7DD1C" d="M145.856,109.303c0.182-0.371,0.592-0.516,1.107-0.554
				C146.782,109.121,146.372,109.265,145.856,109.303z"/>
			<path fill-rule="evenodd" clip-rule="evenodd" fill="#F7DD1C" d="M147.795,110.965c-0.051,1.062,0.227,0.1,0.83,0.276
				C148.439,112.128,146.932,111.532,147.795,110.965z"/>
			<path fill-rule="evenodd" clip-rule="evenodd" fill="#F7DD1C" d="M41.456,115.949c8.787-0.063,18.678,0.09,26.585,0
				c16.335,7.144,45.719,7.164,62.03,0c9.048,0.183,18.829-0.367,27.416,0.276c0.631,10.756,0.103,24.98,0.276,37.108
				c-38.399,0.646-78,0.092-116.861,0.276c-0.645-11.725-0.093-24.646-0.277-36.83C40.78,116.381,41.058,116.104,41.456,115.949z
				 M57.518,131.733c1.308,2.938,4.08,4.413,7.477,5.262c3.482-0.395,5.921-1.832,8.031-3.6c0.402-2.215,0.81-3.995,0-6.093
				c-1.166-0.865-2.32-1.741-3.046-3.046c-1.935,0.359-3.045-1.563-4.708-0.554C60.223,123.916,57.366,126.32,57.518,131.733z
				 M78.287,124.257c-0.697,1.057-1.386,2.121-2.77,2.492c-0.966,2.081-0.861,4.241-0.277,6.646c1.635,1.596,3.986,2.475,6.092,3.6
				c4.801-0.276,8.229-1.926,9.416-5.815c0.303-5.381-3.849-7.78-8.308-7.477C80.464,123.295,80.183,124.583,78.287,124.257z
				 M46.718,124.257c0.141,3.92-0.309,8.433,0.277,11.907c1.016,0,2.031,0,3.046,0c0.299-1.085-0.641-3.41,0.554-3.6
				c0.869,1.254,1.935,2.312,2.769,3.6c1.33-0.239,3.692,0.554,4.154-0.554c-2.065-0.796-3.146-2.577-4.154-4.431
				c2.902-0.854,2.886-5.192,0.831-6.923C51.88,124.198,48.691,122.909,46.718,124.257z M90.749,126.195c1.016,0,2.031,0,3.046,0
				c1.06,2.95,0.027,6.279,0.277,9.969c0.923,0,1.846,0,2.769,0c0.172-3.15-0.352-6.998,0.277-9.692
				c0.669-0.53,2.225-0.175,3.323-0.276c0-0.738,0-1.478,0-2.216c-2.694-0.629-6.541-0.104-9.692-0.276
				C90.749,124.533,90.749,125.364,90.749,126.195z M107.641,123.979c0,4.062,0,8.123,0,12.185c2.308,0,4.615,0,6.923,0
				c3.01-1.213,2.981-5.407,0.277-6.923c0.615-0.492,0.979-1.235,1.107-2.215c-0.645-0.832-1.106-1.848-1.661-2.77
				C112.137,124.24,109.824,123.056,107.641,123.979z M119.271,123.979c-0.635,3.52-0.101,8.207-0.276,12.185
				c2.953,0,5.907,0,8.861,0c0-0.646,0-1.292,0-1.938c-1.719-0.799-4.359,0.729-5.815-0.554c0.174-0.842-0.354-2.385,0.276-2.769
				c2.221-0.032,2.9-0.173,4.985,0c-0.134-0.873,0.85-0.628,0.554-1.662c-1.032-2.466-6.505,1.182-5.815-3.046
				c1.928-0.104,4.316,0.255,5.815-0.277C128.459,121.972,121.573,124.106,119.271,123.979z M130.349,123.703
				c-0.359,4.069-0.464,8.318,0,12.461c2.602-0.352,6.623,0.716,8.308-0.554c-0.028-3.258-4.584-0.425-6.093-1.938
				c0-0.738,0-1.477,0-2.215c1.197-1.111,4.529-0.087,6.093-0.831c0-0.738,0-1.477,0-2.216c-2.173-0.228-5.507,0.707-6.093-1.107
				c0.417-1.982,4.028-0.772,6.093-1.107c0-0.831,0-1.662,0-2.492C135.887,123.703,133.118,123.703,130.349,123.703z
				 M141.148,136.164c0.831,0,1.662,0,2.492,0c-0.083-1.278-0.439-3.04,0.554-3.877c0.743,1.473,2.475,1.957,2.77,3.877
				c1.323-0.11,2.863,0.613,3.6-0.554c-0.93-1.654-2.934-2.235-3.322-4.431c0.768-0.433,1.433-0.967,2.215-1.385
				c1.49-5.508-3.135-6.42-8.308-6.092C141.148,127.856,141.148,132.011,141.148,136.164z M51.702,140.318
				c-0.122,1.045,0.546,1.3,0.831,1.938c1.092-0.466,0.847-0.466,1.938,0c0.027-1.228-0.328-2.072-1.385-2.216
				C53.134,140.642,52.105,140.167,51.702,140.318z M146.964,141.979c0.277,0,0.554,0,0.831,0c0-0.276,0-0.554,0-0.83
				c-0.277,0-0.554,0-0.831,0C146.964,141.426,146.964,141.703,146.964,141.979z M146.964,140.595
				c-1.338-0.761-3.34-0.101-3.323,1.385C145.069,142.5,146.63,142.327,146.964,140.595z M56.133,145.58
				c0.168-0.662-0.348-2.01,0.277-2.216c0.369,0,0.738,0,1.107,0c0,0.369,0,0.738,0,1.107c1.201,0.186,0.638-1.393,1.938-1.107
				c-0.057,1.164-0.1,2.315,0.831,2.492c0-1.569,0-3.139,0-4.707c-1.833-0.541-1.379,1.205-2.492,1.384
				C56.119,138.599,53.698,144.002,56.133,145.58z M61.671,145.303c1.578-0.692,3.465-0.724,4.708,0.277
				c-0.484-2.009-0.576-4.409-3.046-4.431C62.87,142.624,62.191,143.884,61.671,145.303z M67.487,145.303c0.462,0,0.923,0,1.385,0
				c0.151-0.402-0.324-1.432,0.277-1.385c1.028,0.357,1.028,1.741,2.492,1.662c-0.127-1.258-1.028-1.741-1.661-2.492
				c0.585-0.615,1.343-1.058,1.661-1.938c-1.678-0.387-1.269,1.315-2.769,1.107c0-0.369,0-0.738,0-1.107c-0.461,0-0.923,0-1.385,0
				C67.487,142.533,67.487,143.918,67.487,145.303z M73.302,145.58c0.991,0.494,3.591,0.545,3.877-0.554
				c-0.493-0.708-2.583,0.184-3.046-0.555c0-0.369,0-0.738,0-1.107c1.028-0.172,2.85,0.45,3.046-0.554
				c-0.464-0.644-1.854-0.36-2.492-0.831c0.135-0.88,2.497,0.466,2.215-0.83c-1.292,0-2.584,0-3.877,0
				C73.021,143.042,73.12,144.536,73.302,145.58z M78.564,143.364c1.415-0.029,2.999-0.229,2.769,1.385c-1.015,0-2.031,0-3.046,0
				c0.611,1.956,4.774,1.162,4.154-1.385c-1.021-0.455-2.575-0.379-3.046-1.385c0.624-0.991,2.48,0.872,2.77-0.554
				C80.376,140.552,76.676,141.273,78.564,143.364z M88.533,142.533c0.193,1.1-0.483,3.067,0.554,3.323
				c0.535-1.034,0.661-2.477,0.554-4.153c0.403-0.151,1.432,0.323,1.385-0.277c-0.994-0.575-2.995-0.144-4.431-0.276
				C86.612,142.239,88.622,141.338,88.533,142.533z M92.964,145.58c0.8-0.123-0.246-2.093,0.554-2.216c0.739,0,1.477,0,2.216,0
				c0.119,0.896-0.365,2.396,0.554,2.492c0.692-0.583,1.059-4.19,0-4.707c-0.762,0.715-1.322,1.631-2.77,1.661
				c-0.63-0.201,0.255-1.917-0.831-1.661c-0.185,0-0.369,0-0.554,0C92.463,142.572,91.348,145.441,92.964,145.58z M97.949,145.856
				c1.09,0.075,1.924-0.106,2.215-0.83c-1.575-0.531-0.648-3.118,0-3.877c-0.739,0-1.477,0-2.215,0
				C98.698,142.575,98.12,143.954,97.949,145.856z M102.103,145.856c0.985-0.122,0.616-1.6,1.107-2.215
				c1.226,0.344,0.92,2.219,2.492,2.215c0.129-1.235-0.682-1.534-1.107-2.215c0.696-0.227,0.583-1.264,0.554-2.216
				c-0.747-0.545-2.42-0.165-3.6-0.276C101.81,142.642,100.963,145.243,102.103,145.856z M107.087,142.811
				c0.58,0.989,2.999,0.14,2.77,1.938c-0.923,0-1.847,0-2.77,0c0.521,1.531,2.918,1.092,4.154,0.554
				c1.031-3.155-2.58-1.667-2.77-3.6c1.365-0.454,2.635,1.408,2.77-0.277C110.067,140.998,106.452,140.509,107.087,142.811z
				 M114.287,142.811c-0.542,0.834-0.93,2.662,0.554,2.77c0-1.108,0-2.216,0-3.323c0.402-0.613,1.828-0.203,1.938-1.107
				c-1.477,0-2.954,0-4.431,0C112.62,142.077,114.065,141.832,114.287,142.811z M120.656,145.303c0.983,0.564,1.732-1.118,3.6-0.554
				c-0.176,1.008,0.574,1.088,1.385,1.107c0.348-2.286-1.973-1.904-1.385-4.431C121.81,140.416,121.478,143.778,120.656,145.303z
				 M131.18,144.749c-0.523,0.123-1.669-0.377-1.385,0.554c0.569,1.002,1.443,0.258,2.215,0c-0.092-1.922,0.913-2.323,0.277-4.153
				c-0.646,0-1.292,0-1.938,0C131.429,141.745,131.759,143.234,131.18,144.749z M133.395,143.642
				c0.233,3.386,6.371,2.757,5.262-1.385c-0.781,0.043-0.694-0.783-1.107-1.107C135.031,140.847,133.204,141.235,133.395,143.642z
				 M141.148,145.58c0.484-1.417,1.572-3.522,1.662-4.431c-1.229-0.122-0.686,1.53-2.216,1.107c-0.546-0.47-0.635-1.396-1.938-1.107
				C139.98,142.133,139.887,144.533,141.148,145.58z M43.395,151.672c0.462,0,0.923,0,1.385,0c-0.112-1.18,0.268-2.853-0.277-3.6
				c-0.277,0-0.554,0-0.831,0C43.365,148.629,44.013,150.729,43.395,151.672z M45.333,149.457c1.047,0.4,0.532-0.762,1.385-0.554
				c0.282,1.666-1.739,1.03-1.385,2.769c0.646,0,1.292,0,1.938,0c-1.236-1.206,0.818-1.976,0-3.6c-0.646,0-1.292,0-1.938,0
				C45.333,148.533,45.333,148.995,45.333,149.457z M48.379,151.672c1.568-0.146,1.658-0.049,3.323,0
				c-0.916-0.561-0.949-2.004-0.831-3.6c-0.738,0-1.477,0-2.215,0C48.423,149.131,48.294,150.295,48.379,151.672z M148.902,150.011
				c-1.605-0.188-1.253-0.834-0.831-1.938c-0.554,0-1.107,0-1.661,0c-0.159,0.486,0.335,1.627-0.277,1.661
				c-0.398-0.155-0.676-0.432-0.83-0.83c0.497,0.035,0.647-0.275,0.554-0.831c-0.646,0-1.293,0-1.938,0
				c-0.044,0.326,0.048,0.786-0.277,0.831c-0.015-0.354-0.354-0.384-0.276-0.831c-0.554,0-1.108,0-1.662,0
				c-0.234,1.539,0.75,0.565,1.108,1.107c-1.313,0.38,0.496,1.45-0.277,1.938c-0.437-0.025-0.217-0.706-0.831-0.554
				c0,0.369,0,0.738,0,1.107c1.199,0.276,1.537-0.31,2.216-0.554c0.214-0.707-1.084-1.273-0.277-1.661
				c0.066,0.764,1.367,0.294,1.662,0.83c0,0.277,0,0.555,0,0.831c-0.462,0-0.924,0-1.385,0
				C145.27,151.588,148.483,152.49,148.902,150.011z M153.333,149.457c-0.595-0.514-2.028-0.188-3.046-0.277
				c-0.464,0.46-0.221,1.626-0.277,2.492c1.166,0.428,0.044-1.433,0.831-1.385c0.787-0.048-0.335,1.813,0.831,1.385
				c0.122-0.523-0.377-1.669,0.554-1.385c0.601-0.046,0.125,0.982,0.276,1.385c0.555,0,1.108,0,1.662,0
				c-0.299-1.085,0.641-3.41-0.554-3.6C153.459,148.475,153.934,149.503,153.333,149.457z M51.979,150.564
				c0.487,0.066,0.631,0.477,0.554,1.107c1.2,0,2.4,0,3.6,0c-1.006-1.032,0.303-1.034,0-2.769
				C54.187,149.786,52.769,148.193,51.979,150.564z"/>
			<path fill-rule="evenodd" clip-rule="evenodd" fill="#EC3F35" d="M146.964,108.749c3.745-0.048,2.802,5.136-1.107,4.154
				c-0.382-1.004-1.547-1.223-1.108-3.047c0.896,0.343,0.212-0.896,1.108-0.554C146.372,109.265,146.782,109.121,146.964,108.749z
				 M147.795,110.688c0,0.093,0,0.185,0,0.277c-0.863,0.567,0.645,1.163,0.83,0.276c0.279-0.003,0.349-0.485,0-0.554
				C148.513,110.399,147.552,109.716,147.795,110.688z M145.303,111.241c0.185,0,0.369,0,0.554,0c0-0.185,0-0.369,0-0.554
				c-0.185,0-0.369,0-0.554,0C145.303,110.872,145.303,111.057,145.303,111.241z"/>
		</g>
	</g>
</g>
<g id="Cut_1_" display="none">
	
		<rect id="Cut" x="7.089" y="7.089" display="inline" fill="none" stroke="#ED1F24" stroke-width="0.5" stroke-miterlimit="10" width="184.252" height="184.252"/>
</g>
</svg>
